<mxfile host="app.diagrams.net" modified="2023-08-14T03:00:19.105Z" agent="Mozilla/5.0 (Windows NT 10.0; Win64; x64) AppleWebKit/537.36 (KHTML, like Gecko) Chrome/115.0.0.0 Safari/537.36 Edg/115.0.1901.200" etag="i51B6ZUu6kvJxSFAts-O" version="21.6.3" type="github">
  <diagram name="第 1 页" id="_n-UGLtGVSXwZAhkXjkU">
    <mxGraphModel dx="954" dy="616" grid="1" gridSize="10" guides="1" tooltips="1" connect="1" arrows="1" fold="1" page="1" pageScale="1" pageWidth="827" pageHeight="1169" math="0" shadow="0">
      <root>
        <mxCell id="0" />
        <mxCell id="1" parent="0" />
        <mxCell id="ZvjxKTp1fL7yv7Tt8mQT-35" value="" style="whiteSpace=wrap;html=1;rounded=1;arcSize=50;strokeWidth=1;spacing=4;" vertex="1" visible="0" parent="1">
          <mxGeometry x="510" y="383" width="120" height="60" as="geometry" />
        </mxCell>
      </root>
    </mxGraphModel>
  </diagram>
</mxfile>
